<svg width="218" height="15" viewBox="0 0 218 15" fill="none" xmlns="http://www.w3.org/2000/svg"><path d="M1.07 1.868c.383-.383.895-.638 1.534-.893C3.244.72 3.884.72 4.523.72c.64 0 1.15.128 1.663.255.511.128.895.383 1.279.638.383.255.64.51.767.893.128.383.256.765.256 1.148 0 .51-.128 1.02-.384 1.403s-.64.766-1.023 1.02c.256.128.512.256.64.384l.511.51c.128.255.256.382.384.638.128.255.128.51.128.765 0 .51-.128 1.02-.256 1.403s-.512.766-.768 1.148c-.383.383-.767.638-1.279.766-.511.127-1.15.255-1.79.255-.384 0-.768 0-1.152-.128-.383-.127-.767-.127-1.023-.255-.383-.127-.64-.255-.895-.51-.256-.128-.512-.383-.768-.638l.64-1.02c0-.128.128-.128.256-.128s.128-.128.256-.128.255 0 .383.128.384.255.64.383l.767.382c.256.128.64.128 1.151.128.64 0 1.28-.128 1.663-.383.384-.255.512-.765.512-1.403 0-.255 0-.51-.128-.638a1.762 1.762 0 0 0-.384-.51.978.978 0 0 0-.64-.255c-.255-.128-.51-.128-.895-.128H2.988V5.185h1.407c.64 0 1.151-.128 1.535-.383.383-.255.511-.638.511-1.148 0-.383-.128-.765-.511-1.02-.384-.256-.896-.383-1.535-.383-.384 0-.64 0-1.023.127-.384.128-.256.255-.512.383s-.384.128-.512.255c-.128.128-.255.128-.383.128s-.128 0-.256-.128c-.128-.127-.128-.127-.128-.255l-.512-.893zm10.871 3.189c.384-.382.64-.638 1.152-.893.383-.255.895-.382 1.407-.382.383 0 .767.127 1.15.255.384.127.64.382.896.765s.512.766.64 1.276.255 1.02.255 1.658c0 .638-.127 1.148-.255 1.659-.128.51-.384.893-.64 1.275-.256.383-.64.638-1.023.893-.384.255-.896.255-1.407.255-.384 0-.768-.127-1.151-.255-.256-.127-.64-.382-.896-.51v3.19h-1.918V4.036h1.15c.257 0 .385.127.512.382l.128.638zm.128 4.72c.256.255.512.383.64.51.256.128.511.128.767.128s.512 0 .768-.127c.256-.128.383-.256.64-.51.255-.256.255-.511.383-.894.128-.382.128-.765.128-1.148 0-.51 0-.893-.128-1.148-.128-.383-.128-.638-.256-.765-.128-.255-.256-.383-.511-.383-.256 0-.384-.128-.64-.128-.384 0-.767.128-1.023.256-.256.127-.512.382-.768.637v3.572zM22.302 3.91c.64 0 1.151.127 1.535.254.384.128.895.51 1.279.766.384.382.64.765.767 1.275.128.51.256 1.02.256 1.659 0 .638-.128 1.148-.256 1.658s-.383.893-.767 1.276-.768.638-1.28.765c-.51.128-1.022.255-1.534.255-.64 0-1.151-.127-1.663-.255-.512-.127-.895-.51-1.279-.765-.384-.383-.64-.766-.767-1.276-.128-.51-.256-1.02-.256-1.658 0-.638.128-1.148.256-1.659.128-.51.511-.893.767-1.275.384-.383.767-.638 1.28-.766.51-.127 1.15-.255 1.662-.255zm0 6.633c.64 0 1.151-.255 1.407-.638s.512-1.02.512-1.914c0-.893-.128-1.53-.512-1.913-.256-.51-.768-.766-1.407-.766-.64 0-1.151.256-1.535.638-.384.383-.512 1.148-.512 1.914 0 .893.128 1.53.512 1.913.384.51.895.766 1.535.766zm9.593-8.037c-.512 0-.895.127-1.28.255-.383.128-.639.383-.894.638-.256.255-.384.638-.512.893-.128.383-.128.765-.256 1.276a.997.997 0 0 1 .512-.51c.128-.128.383-.256.64-.383.255-.128.51-.256.767-.256.255 0 .511-.127.895-.127.512 0 1.023.127 1.407.255.512.128.895.51 1.151.765.256.256.512.766.64 1.276s.256 1.02.256 1.53c0 .639-.128 1.149-.256 1.66-.128.51-.512.892-.768 1.275-.256.383-.767.638-1.279.765-.511.128-1.023.255-1.535.255a5.513 5.513 0 0 1-1.535-.255c-.511-.127-.895-.51-1.279-.893-.383-.382-.64-.893-.767-1.658-.256-.638-.256-1.53-.256-2.424 0-.765.128-1.53.256-2.296.128-.638.384-1.276.767-1.786.384-.51.768-.893 1.28-1.276.511-.255 1.279-.51 2.046-.51L34.709.72l.128 1.02c0 .256 0 .383-.128.51-.128.128-.256.256-.384.256h-2.43zm-.512 8.037c.64 0 1.151-.255 1.407-.638s.512-1.02.512-1.786-.128-1.403-.512-1.786c-.256-.383-.767-.638-1.407-.638a2.12 2.12 0 0 0-1.535.638c-.383.383-.511 1.02-.511 1.786 0 .893.128 1.403.511 1.913.384.51.896.51 1.535.51zm12.535 1.275H42V5.44h-1.92c0 1.02-.128 1.786-.256 2.551-.128.638-.256 1.276-.511 1.786-.128.51-.384.893-.64 1.148l-.64.638-.767.383c-.256.127-.512.127-.767.127-.256 0-.512 0-.64-.127-.128-.128-.256-.128-.256-.255v-1.148h.512c.128 0 .384 0 .511-.128.128-.127.384-.127.512-.255s.256-.383.512-.638c.128-.255.256-.638.383-1.148.128-.51.256-1.02.256-1.786.128-.638.128-1.53.256-2.551h5.372v7.781zm3.326-3.699c0 .383.128.765.256 1.02l.383.766a.704.704 0 0 0 .64.383c.256.127.512.127.895.127.256 0 .512 0 .768-.127.255-.128.383-.128.64-.256.127-.127.255-.127.383-.255.128-.127.256-.127.384-.127s.255 0 .383.127l.512.638c-.256.255-.384.51-.767.638-.384.128-.512.255-.768.383-.256.127-.511.127-.895.255h-.896c-.511 0-1.023-.128-1.534-.255-.512-.128-.896-.51-1.28-.766-.383-.382-.64-.765-.767-1.275-.256-.51-.256-1.149-.256-1.786 0-.51.128-1.02.256-1.531.128-.51.384-.893.767-1.276.384-.383.768-.638 1.152-.893.511-.255 1.023-.255 1.535-.255.511 0 .895.128 1.406.255.384.128.768.383 1.024.638s.511.638.767 1.148c.128.383.256.893.256 1.53 0 .256 0 .511-.128.639 0 .127-.128.127-.384.127h-4.732v.128zm3.581-1.148c0-.255 0-.51-.128-.638-.128-.255-.128-.383-.256-.51l-.511-.51c-.256-.128-.512-.128-.768-.128-.511 0-1.023.127-1.279.51-.255.255-.511.766-.64 1.276h3.582zm9.977-2.934v7.909h-1.919V8.502h-3.07v3.444h-1.918v-7.91h1.919v2.935h3.07V4.037h1.918zm5.372-.127c.64 0 1.151.127 1.535.254.384.128.895.51 1.279.766.384.382.64.765.767 1.275.128.51.256 1.02.256 1.659 0 .638-.128 1.148-.256 1.658-.127.51-.383.893-.767 1.276s-.767.638-1.28.765c-.51.128-1.022.255-1.534.255-.64 0-1.151-.127-1.663-.255-.511-.127-.895-.51-1.279-.765-.384-.383-.64-.766-.767-1.276-.128-.51-.256-1.02-.256-1.658 0-.638.128-1.148.256-1.659.128-.51.511-.893.767-1.275.384-.383.768-.638 1.28-.766.51-.127 1.022-.255 1.662-.255zm0 6.633c.64 0 1.151-.255 1.407-.638s.512-1.02.512-1.914c0-.893-.128-1.53-.512-1.913-.256-.51-.767-.766-1.407-.766s-1.151.256-1.535.638c-.256.51-.384 1.148-.384 1.914 0 .893.128 1.53.512 1.913.256.51.767.766 1.407.766zm16.244-6.506l-4.349 9.95a.273.273 0 0 1-.255.255c-.128.128-.256.128-.384.128h-1.407l1.535-3.19-3.198-7.143h1.663c.128 0 .256 0 .384.127.128.128.128.128.128.255l1.662 4.083c0 .127.128.255.128.382 0 .128.128.255.128.383 0-.128.128-.255.128-.383 0-.127.128-.255.128-.382l1.535-4.083c0-.127.128-.127.256-.255.128-.127.255-.127.383-.127h1.535zm7.035 7.781h-2.046V.72h2.046v11.098zm5.117-7.781c.511 0 .895 0 1.279.127.383.128.64.255.895.383.256.128.384.383.512.638.127.255.127.51.127.765 0 .128 0 .383-.127.51 0 .128-.128.383-.256.51-.128.128-.256.383-.512.511-.128.128-.384.255-.767.383.255 0 .511.127.767.255.256.127.384.255.512.383.128.127.256.382.383.51.128.255.128.383.128.638 0 .382-.128.765-.255 1.02-.128.255-.384.51-.64.766-.256.127-.64.382-1.023.382-.384.128-.768.128-1.151.128h-3.198v-7.91h3.325zm-1.28 1.148v2.04h1.28c.127 0 .383 0 .511-.127s.256-.127.384-.255c.128-.127.256-.255.256-.382 0-.128.128-.256.128-.51v-.383a.275.275 0 0 0-.256-.256h-.512c-.256 0-.384-.127-.64-.127h-1.15zm1.407 5.358c.384 0 .768-.128.896-.255.256-.256.383-.51.383-.766V9.14c0-.127-.127-.255-.255-.382-.128-.128-.256-.128-.384-.255-.128-.128-.384-.128-.64-.128H93.29v2.041h1.407v.128zm4.349-5.486c.896-.765 2.047-1.275 3.326-1.275.511 0 .895.127 1.279.255.384.127.64.382.895.638.256.255.384.637.512 1.02s.256.766.256 1.276v4.975h-.896c-.128 0-.255 0-.383-.128-.128 0-.128-.127-.256-.382l-.128-.51c-.256.127-.384.382-.64.51-.128.127-.383.255-.64.382-.255.128-.383.128-.639.256-.256 0-.511.127-.767.127-.384 0-.64 0-.896-.127l-.767-.383c-.256-.128-.384-.383-.512-.638-.127-.255-.127-.638-.127-.893s0-.383.127-.638c.128-.255.128-.383.384-.51.256-.128.384-.383.64-.51.255-.128.511-.256.895-.383.384-.128.767-.255 1.28-.255.51-.128 1.022-.128 1.534-.128v-.893c0-.51-.128-.893-.384-1.148-.383-.255-.64-.383-1.15-.383-.257 0-.513 0-.768.128-.256.128-.384.128-.512.255-.128.128-.256.128-.384.255-.128.128-.256.128-.383.128-.128 0-.256 0-.384-.128l-.256-.255-.256-.638zm4.35 3.445c-.513 0-1.024.127-1.408.127-.384.128-.64.128-.895.255-.256.128-.384.255-.512.383s-.128.255-.128.51c0 .383.128.51.256.766.256.127.512.255.767.255.384 0 .768-.128 1.024-.255.256-.128.511-.383.895-.638V8.502zm10.488-4.465v7.909h-1.919V8.502h-3.07v3.444h-1.918v-7.91h1.919v2.935h3.07V4.037h1.918zm5.371-.127c.64 0 1.151.127 1.535.254.384.128.895.51 1.28.766.383.382.639.765.767 1.275.127.51.255 1.02.255 1.659 0 .638-.128 1.148-.255 1.658-.128.51-.384.893-.768 1.276s-.767.638-1.279.765c-.512.128-1.023.255-1.535.255-.64 0-1.151-.127-1.663-.255-.511-.127-.895-.51-1.279-.765-.383-.383-.64-.766-.767-1.276-.128-.51-.256-1.02-.256-1.658 0-.638.128-1.148.256-1.659.128-.51.511-.893.767-1.275.384-.383.768-.638 1.28-.766.511-.127 1.023-.255 1.662-.255zm0 6.633c.64 0 1.151-.255 1.407-.638s.512-1.02.512-1.914c0-.893-.128-1.53-.512-1.913-.256-.383-.767-.638-1.407-.638s-1.151.255-1.535.638c-.383.383-.511 1.148-.511 1.913 0 .893.128 1.531.511 1.914.384.383.768.638 1.535.638zM124.5 6.46h3.965v1.531H124.5v-1.53zm12.023-4.847c.64 0 1.28.128 1.919.383.64.255 1.023.51 1.535 1.02.511.51.767.893 1.023 1.403a3.92 3.92 0 0 1 .384 1.659c0 .638-.128 1.148-.384 1.658s-.512 1.02-1.023 1.403a4.6 4.6 0 0 1-1.535 1.021c-.64.255-1.151.383-1.919.383v1.275h-1.919v-1.275a5.14 5.14 0 0 1-1.918-.383c-.64-.255-1.023-.51-1.535-1.02a5.664 5.664 0 0 1-1.023-1.404 3.92 3.92 0 0 1-.384-1.658c0-.638.128-1.148.384-1.659.256-.51.511-1.02 1.023-1.403.512-.383.895-.765 1.535-1.02.64-.255 1.151-.383 1.918-.383V.337h1.92v1.276zm-2.046 1.53c-.384 0-.768.128-1.024.256-.383.127-.64.383-.895.638-.256.255-.384.51-.512.893-.128.382-.128.765-.128 1.148 0 .383 0 .765.128 1.148.128.383.256.638.512.893s.512.51.895.638c.384.127.64.255 1.024.255V3.144zm2.046 5.741c.384 0 .768-.127 1.023-.255.384-.127.64-.383.896-.638.255-.255.383-.51.511-.893.128-.382.256-.765.256-1.148 0-.382-.128-.765-.256-1.148-.128-.383-.256-.638-.511-.893-.256-.255-.512-.51-.896-.638-.383-.127-.64-.255-1.023-.255v5.868zm7.803-3.827c.383-.382.64-.638 1.15-.893.385-.255.896-.382 1.408-.382.384 0 .767.127 1.151.255.384.127.64.382.895.765.256.383.512.766.64 1.276s.256 1.02.256 1.658c0 .638-.128 1.148-.256 1.659-.128.51-.384.893-.64 1.275-.255.383-.64.638-1.023.893-.384.255-.895.255-1.407.255-.384 0-.767-.127-1.151-.255-.256-.127-.64-.382-.895-.51v3.19h-1.919V4.036h1.151c.256 0 .384.127.512.382l.128.638zm.128 4.72c.255.255.511.383.64.51.255.128.51.128.767.128.255 0 .511 0 .767-.127.256-.128.384-.256.64-.51.255-.256.255-.511.383-.894.128-.382.128-.765.128-1.148 0-.51 0-.893-.128-1.148-.128-.383-.128-.638-.256-.765-.127-.255-.255-.383-.511-.383s-.512-.128-.64-.128a2.41 2.41 0 0 0-1.023.256c-.256.127-.512.382-.767.637v3.572zm6.523-4.72c.895-.765 2.046-1.275 3.325-1.275.512 0 .896.127 1.28.255.383.127.639.382.895.638.256.255.383.637.511 1.02s.256.766.256 1.276v4.975h-.895c-.128 0-.256 0-.384-.128-.128 0-.128-.127-.256-.382l-.128-.51c-.255.127-.383.382-.64.51-.127.127-.383.255-.639.382-.256.128-.383.128-.64.256-.255 0-.51.127-.767.127-.383 0-.64 0-.895-.127l-.767-.383c-.256-.128-.384-.383-.512-.638s-.128-.638-.128-.893 0-.383.128-.638.128-.383.384-.51c.255-.128.383-.383.64-.51.255-.128.51-.256.895-.383.383-.128.767-.255 1.279-.255.511-.128 1.023-.128 1.534-.128v-.893c0-.51-.127-.893-.383-1.148-.256-.255-.512-.383-1.024-.383-.255 0-.511 0-.767.128s-.384.128-.512.255c-.127.128-.255.128-.383.255-.128.128-.256.128-.384.128s-.256 0-.384-.128l-.256-.255-.383-.638zm4.349 3.445c-.512 0-1.024.127-1.407.127-.384.128-.64.128-.896.255-.256.128-.383.255-.383.383-.128.128-.128.255-.128.51 0 .383.128.51.255.766.256.127.512.255.768.255.384 0 .767-.128 1.023-.255.256-.128.512-.383.895-.638V8.502h-.127zm10.488-4.465v7.909h-1.919V8.502h-3.07v3.444h-1.79v-7.91h1.919v2.935h3.07V4.037h1.79zm6.651.51l.383-.383c.128-.127.256-.127.512-.127h1.535l-1.79 2.934c-.129.255-.257.382-.385.51s-.255.255-.511.255c.256.128.511.128.64.383.127.127.255.383.383.51l1.79 3.19h-1.278c-.384 0-.64 0-.768-.128s-.384-.255-.511-.51l-1.152-2.17c-.127-.127-.255-.382-.383-.382-.128-.127-.384-.127-.512-.127h-.767v3.444h-1.919v-7.91h1.919v3.19h.64c.255 0 .383 0 .51-.128l.385-.382 1.279-2.169zm5.885-2.807c0 .128 0 .256-.129.51-.128.128-.128.256-.256.383-.127.128-.255.256-.383.256-.128.127-.256.127-.512.127-.128 0-.256 0-.512-.127-.127 0-.255-.128-.383-.256-.128-.127-.256-.255-.256-.382-.128-.128-.128-.255-.128-.51 0-.128 0-.383.128-.51 0-.128.128-.256.256-.383.128-.128.256-.256.383-.256.128 0 .256-.127.512-.127.128 0 .384 0 .512.127.128.128.256.128.383.256.128.127.256.255.256.382 0 .128.128.255.128.51zm-.257 2.297v7.909h-1.918v-7.91h1.918zm4.989 0c.511 0 .895 0 1.279.127.383.128.64.255.895.383.256.128.384.383.512.638.128.127.128.383.128.765 0 .128 0 .383-.128.51 0 .128-.128.383-.256.51-.128.128-.256.383-.512.511-.128.128-.384.255-.767.383.256 0 .511.127.767.255.256.127.384.255.512.383.128.127.256.382.384.51.127.255.127.383.127.638 0 .382-.127.765-.255 1.02s-.384.51-.64.766c-.256.127-.64.382-1.023.382-.384.128-.768.128-1.151.128h-3.198v-7.91h3.326zm-1.28 1.148v2.04h1.28c.128 0 .383 0 .511-.127s.256-.127.384-.255c.128-.127.256-.255.256-.382 0-.128.128-.256.128-.51v-.383a.275.275 0 0 0-.256-.256h-.512c-.128 0-.384-.127-.64-.127h-1.15zm1.407 5.358c.384 0 .768-.128.896-.255.256-.256.384-.51.384-.766V9.14c0-.127-.128-.255-.256-.382-.128-.128-.256-.128-.384-.255-.128-.128-.384-.128-.64-.128h-1.406v2.041h1.406v.128zm10.105-4.848c0 .128-.128.128-.128.128h-.256c-.128 0-.256 0-.256-.128-.128 0-.256-.127-.384-.255s-.256-.128-.511-.255c-.128 0-.384-.128-.64-.128-.384 0-.64 0-.895.128-.256.127-.512.255-.64.51l-.383.766c-.128.382-.128.637-.128 1.02s0 .765.128 1.148c.127.383.255.638.383.766.128.255.384.382.64.51.256.127.511.127.767.127s.512 0 .768-.127c.128-.128.383-.128.511-.255.128-.128.256-.128.384-.255.128-.128.256-.128.256-.128.128 0 .256 0 .384.128l.511.637c-.256.256-.384.51-.64.638l-.767.383c-.256.128-.511.128-.767.255-.256.128-.512 0-.896 0-.511 0-.895-.127-1.407-.255-.383-.128-.767-.383-1.15-.765-.384-.383-.64-.766-.768-1.276s-.256-1.02-.256-1.658c0-.638.128-1.149.256-1.659s.384-.893.767-1.276c.384-.382.768-.637 1.151-.893.512-.255 1.024-.255 1.663-.255.64 0 1.151.128 1.535.255.384.128.895.51 1.151.766l-.383 1.403zm4.989 1.148c.511 0 1.023.128 1.407.255.383.128.64.255.895.51.256.256.384.51.512.766.127.255.127.638.127.893 0 .383-.127.765-.255 1.02-.128.256-.384.638-.64.766s-.512.383-.895.51c-.384.128-.768.128-1.28.128h-3.197V4.037h1.79V6.97h1.536v-.128zm0 3.7c.383 0 .767-.128 1.023-.383.256-.255.256-.51.256-.765 0-.128 0-.256-.128-.383 0-.128-.128-.255-.256-.383-.128-.127-.256-.127-.384-.255s-.384-.128-.64-.128h-1.406v2.297h1.535zm8.953-5.996l.383-.383c.128-.127.384-.127.512-.127h1.535l-1.79 2.934c-.129.255-.257.382-.385.51s-.255.255-.511.255c.256.128.511.128.64.383.127.127.255.383.383.51l1.79 3.19h-1.278c-.384 0-.64 0-.768-.128s-.384-.255-.511-.51l-1.152-2.17c-.127-.127-.255-.382-.383-.382-.128-.127-.384-.127-.512-.127h-.767v3.444h-1.919v-7.91h1.919v3.19h.64c.255 0 .383 0 .51-.128l.384-.382 1.28-2.169zM218 4.037l-4.349 9.95c0 .128-.128.255-.256.255-.127.128-.255.128-.383.128h-1.407l1.535-3.19-3.198-7.143h1.663c.128 0 .256 0 .384.127.127.128.127.128.127.255l1.663 4.083c0 .127.128.255.128.382 0 .128.128.255.128.383 0-.128.128-.255.128-.383 0-.127.128-.255.128-.382l1.535-4.083c0-.127.128-.127.256-.255.127-.127.255-.127.255-.127H218z" fill="#959191"/></svg>