<svg width="23" height="23" viewBox="0 0 23 23" fill="none" xmlns="http://www.w3.org/2000/svg"><path d="M20.279 0s.127.128 0 0c1.407.51 2.174 1.53 2.302 2.806 0 1.149-.64 2.297-1.919 2.807-.128 0-.128.128-.256.128.384 2.806-1.407 4.975-3.965 5.23v1.02c1.28.128 2.303.638 3.198 1.659.767 1.02 1.023 2.168.895 3.444 2.303 1.276 2.814 3.19 1.28 4.848-.384-.383-.768-.893-1.152-1.276-2.046-2.169-4.22-4.21-6.267-6.379A466.192 466.192 0 0 1 3.139 3.063L1.604 1.53c-.256-.255-.512-.383-.767-.638.511-.255.895-.51 1.407-.893h1.15c1.152.383 1.92 1.02 2.175 2.169 1.28-.255 2.558 0 3.582.893 1.023.765 1.534 1.913 1.662 3.189h1.024c.128-1.276.64-2.424 1.662-3.19 1.024-.892 2.175-1.02 3.582-.892C17.337 1.02 18.232.383 19.127 0h1.152z" fill="#959191"/><path d="M.837.893c.255.255.511.383.767.638l1.535 1.53c3.71 3.828 7.419 7.527 11.128 11.354 2.046 2.169 4.22 4.21 6.267 6.378.384.383.768.766 1.152 1.276-1.407 1.659-3.838 1.02-4.733-1.276-2.43.383-4.86-1.148-5.244-4.082h-1.024c-.127 1.276-.64 2.424-1.662 3.19a4.418 4.418 0 0 1-3.454.765c-.256.765-.64 1.53-1.407 1.786-.511.255-1.151.383-1.663.255-1.15-.128-2.174-1.148-2.43-2.424-.256-1.275.512-2.424 2.175-3.189-.384-2.679.895-4.337 3.965-5.23v-.893c-1.28-.255-2.43-.766-3.198-1.786-.767-1.02-1.023-2.169-.767-3.444C-.06 4.465-.698 2.296.837.893z" fill="#7A7A7A"/></svg>