<svg width="23" height="23" viewBox="0 0 23 23" fill="none" xmlns="http://www.w3.org/2000/svg">
<path d="M19.4419 -1.52072e-08C19.4419 -1.52072e-08 19.5698 0.127567 19.4419 -1.52072e-08C20.8489 0.51027 21.6163 1.53081 21.7442 2.80648C21.7442 3.95459 21.1047 5.1027 19.8256 5.61297C19.6977 5.61297 19.6977 5.74053 19.5698 5.74053C19.9535 8.54702 18.1628 10.7157 15.6047 10.9708C15.6047 11.2259 15.6047 11.6086 15.6047 11.9913C16.8838 12.1189 17.907 12.6292 18.8024 13.6497C19.5698 14.6702 19.8256 15.8184 19.6977 17.094C22.0001 18.3697 22.5117 20.2832 20.9768 21.9416C20.5931 21.5589 20.2094 21.0486 19.8256 20.6659C17.7791 18.4973 15.6047 16.4562 13.5582 14.2875C9.72095 10.5881 6.01164 6.88864 2.30233 3.06162C1.7907 2.55135 1.27907 2.04108 0.767444 1.53081C0.511629 1.27567 0.255815 1.14811 -6.09909e-08 0.892972C0.511629 0.637837 0.895351 0.382702 1.40698 -1.52072e-08C1.7907 -1.52072e-08 2.17442 -1.52072e-08 2.55815 -1.52072e-08C3.70931 0.382702 4.47676 1.02054 4.73257 2.16865C6.01164 1.91351 7.29072 2.16865 8.31397 3.06162C9.33723 3.82702 9.84886 4.97513 9.97677 6.2508C10.3605 6.2508 10.6163 6.2508 11 6.2508C11.1279 4.97513 11.6396 3.82702 12.6628 3.06162C13.6861 2.16865 14.8372 2.04108 16.2442 2.16865C16.5 1.02054 17.3954 0.382702 18.2907 -1.52072e-08C18.6745 -1.52072e-08 19.0582 -1.52072e-08 19.4419 -1.52072e-08Z" transform="translate(0.836609)" fill="#959191"/>
<path d="M0.836611 -3.04144e-08C1.09243 0.255135 1.34824 0.382702 1.60405 0.637837C2.11568 1.14811 2.62731 1.65838 3.13894 2.16865C6.84825 5.99567 10.5576 9.69512 14.2669 13.5221C16.3134 15.6908 18.4878 17.7319 20.5343 19.9005C20.9181 20.2832 21.3018 20.6659 21.6855 21.1762C20.2785 22.8346 17.8483 22.1967 16.9529 19.9005C14.5227 20.2832 12.0925 18.7524 11.7087 15.8184C11.4529 15.8184 11.0692 15.8184 10.6855 15.8184C10.5576 17.094 10.0459 18.2421 9.02268 19.0075C8.12733 19.6454 6.97616 20.0281 5.56918 19.7729C5.31337 20.5384 4.92964 21.3038 4.1622 21.5589C3.65057 21.814 3.01103 21.9416 2.49941 21.814C1.34824 21.6865 0.324982 20.6659 0.0691675 19.3902C-0.186647 18.1146 0.580797 16.9665 2.24359 16.2011C1.85987 13.5221 3.13894 11.8638 6.20872 10.9708C6.20872 10.7157 6.20872 10.333 6.20872 10.0778C4.92964 9.82269 3.77848 9.31242 3.01104 8.29188C2.24359 7.27134 1.98778 6.12324 2.24359 4.84756C-0.0587396 3.57189 -0.698276 1.40324 0.836611 -3.04144e-08Z" transform="translate(0 0.892944)" fill="#7A7A7A"/>
</svg>
